<?xml version="1.0" standalone="no"?>
<!DOCTYPE svg PUBLIC "-//W3C//DTD SVG 20010904//EN"
 "http://www.w3.org/TR/2001/REC-SVG-20010904/DTD/svg10.dtd">
<svg version="1.0" xmlns="http://www.w3.org/2000/svg"
 width="512.000000pt" height="512.000000pt" viewBox="0 0 512.000000 512.000000"
 preserveAspectRatio="xMidYMid meet">

<g transform="translate(0.000000,512.000000) scale(0.100000,-0.100000)"
fill="#000000" stroke="none">
<path d="M1931 4684 c-118 -31 -240 -118 -302 -215 l-32 -49 -157 0 c-191 0
-188 2 -192 -115 l-3 -80 -190 -5 c-190 -5 -191 -5 -256 -37 -80 -39 -150
-111 -187 -191 l-27 -57 0 -1615 0 -1615 33 -67 c38 -78 110 -149 192 -187
l55 -26 1200 0 1200 0 58 27 c74 35 157 114 190 182 15 30 31 85 37 123 5 37
10 265 10 507 l0 438 476 717 c262 394 483 733 490 755 44 124 -16 265 -138
324 -87 43 -220 22 -290 -45 -14 -14 -140 -196 -280 -405 l-253 -381 -5 619
c-6 688 -4 667 -76 771 -44 64 -114 118 -189 144 -46 16 -82 19 -230 19 l-175
0 0 64 c0 67 -12 115 -33 128 -7 4 -80 8 -164 8 l-151 0 -36 49 c-111 151
-268 232 -446 230 -41 0 -99 -7 -129 -15z m302 -158 c71 -34 147 -107 181
-173 14 -28 32 -53 41 -57 9 -3 79 -6 156 -6 l139 0 0 -180 0 -180 -680 0
-680 0 0 180 0 180 138 0 c152 0 155 1 192 65 48 82 118 144 209 182 48 20 69
23 151 20 79 -3 105 -8 153 -31z m-983 -566 c0 -117 2 -132 20 -150 20 -20 33
-20 798 -20 779 0 779 0 798 21 16 18 19 40 22 150 l4 129 158 0 c172 0 213
-8 276 -56 19 -15 47 -48 62 -73 l27 -46 3 -732 3 -733 -179 -267 c-98 -148
-188 -284 -200 -304 -16 -27 -35 -105 -67 -282 -25 -135 -45 -256 -45 -270 0
-30 32 -60 64 -59 15 0 103 50 220 126 108 69 198 126 201 126 3 0 4 -177 3
-392 -3 -355 -5 -397 -21 -429 -24 -47 -71 -95 -121 -122 l-41 -22 -1170 0
c-1122 0 -1171 1 -1205 19 -49 26 -98 74 -123 121 l-22 40 0 1585 0 1585 22
40 c28 53 78 99 133 124 39 18 66 21 213 21 l167 0 0 -130z m2919 -884 l101
-66 -431 -648 c-237 -356 -434 -650 -438 -654 -3 -4 -55 25 -114 63 l-108 70
18 28 c244 378 851 1279 860 1276 6 -2 56 -33 112 -69z m-931 -1434 c28 -19
52 -36 52 -37 0 -7 -191 -127 -195 -123 -3 2 4 53 15 113 11 60 20 111 20 113
0 4 13 -4 108 -66z"/>
<path d="M2040 4343 c-37 -13 -60 -47 -60 -85 0 -98 128 -124 166 -33 29 71
-36 143 -106 118z"/>
<path d="M980 3353 c-49 -18 -50 -25 -50 -234 l0 -198 26 -20 c25 -20 40 -21
215 -21 176 0 190 1 209 20 19 19 20 33 20 218 0 108 -4 202 -8 208 -19 29
-55 34 -224 33 -95 0 -180 -3 -188 -6z"/>
<path d="M1623 3180 c-46 -19 -55 -69 -18 -105 l24 -25 603 0 c670 0 648 -2
648 63 0 38 -7 50 -37 66 -26 13 -1185 15 -1220 1z"/>
<path d="M1310 2687 c-14 -7 -52 -63 -94 -138 l-70 -127 -64 49 c-72 55 -98
60 -130 26 -44 -47 -30 -73 90 -164 113 -86 128 -91 162 -61 35 31 196 326
196 359 0 44 -51 75 -90 56z"/>
<path d="M1605 2495 c-29 -28 -31 -51 -9 -83 l15 -22 619 0 c686 0 650 -4 650
65 0 67 24 65 -648 65 l-603 0 -24 -25z"/>
<path d="M950 2000 c-19 -19 -20 -33 -20 -215 0 -182 1 -196 20 -215 19 -19
33 -20 218 -20 180 0 200 2 215 18 15 16 17 47 17 219 0 181 -2 201 -18 216
-16 15 -46 17 -215 17 -184 0 -198 -1 -217 -20z"/>
<path d="M1606 1835 c-26 -27 -29 -56 -8 -84 l19 -26 615 -3 c601 -2 615 -2
633 18 22 25 22 65 0 90 -18 19 -34 20 -631 20 -532 0 -615 -2 -628 -15z"/>
<path d="M1303 1333 c-7 -2 -45 -63 -84 -134 -39 -71 -72 -129 -74 -129 -1 0
-29 20 -61 45 -69 54 -114 60 -140 21 -28 -43 -15 -66 81 -143 165 -132 158
-134 282 87 96 172 108 213 75 243 -18 16 -54 21 -79 10z"/>
<path d="M2447 1264 c-31 -7 -128 -41 -214 -75 -265 -103 -350 -110 -503 -39
-91 42 -114 42 -140 -4 -22 -39 1 -73 76 -113 81 -43 162 -63 255 -63 97 0
189 24 360 93 254 103 334 103 501 4 35 -20 40 -21 65 -7 29 16 39 45 29 84
-7 30 -106 92 -184 116 -74 23 -161 25 -245 4z"/>
</g>
</svg>
