<?xml version="1.0" standalone="no"?>
<!DOCTYPE svg PUBLIC "-//W3C//DTD SVG 20010904//EN"
 "http://www.w3.org/TR/2001/REC-SVG-20010904/DTD/svg10.dtd">
<svg version="1.0" xmlns="http://www.w3.org/2000/svg"
 width="512.000000pt" height="512.000000pt" viewBox="0 0 512.000000 512.000000"
 preserveAspectRatio="xMidYMid meet">

<g transform="translate(0.000000,512.000000) scale(0.100000,-0.100000)"
fill="#000000" stroke="none">
<path d="M1932 5090 c-18 -4 -42 -16 -54 -26 -42 -38 -48 -72 -48 -289 0 -113
-3 -205 -7 -205 -26 0 -844 -143 -866 -152 -15 -6 -39 -24 -52 -40 -31 -37
-32 -82 -5 -232 11 -61 17 -113 13 -116 -5 -4 -174 -64 -378 -133 -485 -166
-485 -166 -512 -207 -13 -18 -23 -47 -23 -64 1 -51 555 -1578 581 -1598 11
-10 33 -18 48 -18 33 0 71 37 71 68 0 12 -122 360 -270 774 -149 413 -269 753
-267 755 7 6 758 263 770 263 8 0 104 -535 285 -1598 151 -878 278 -1613 283
-1632 11 -46 57 -89 100 -96 26 -4 1285 202 1414 232 l20 4 -20 -10 c-11 -5
-209 -77 -440 -160 -231 -83 -590 -212 -798 -287 -224 -81 -382 -132 -387
-127 -5 5 -133 354 -284 775 -319 888 -303 847 -327 859 -57 31 -118 -13 -110
-80 3 -21 580 -1629 597 -1662 8 -15 28 -34 44 -43 61 -32 21 -44 930 283 679
244 883 317 1270 457 383 138 414 148 575 175 168 29 175 30 550 30 426 0 433
1 467 70 17 33 18 135 18 1696 l0 1661 -22 31 c-23 32 -621 603 -661 631 -20
14 -156 16 -1247 18 -674 0 -1240 -2 -1258 -7z m1986 -147 l352 -6 0 -251 c0
-241 1 -253 23 -290 14 -25 39 -48 66 -63 43 -22 50 -23 328 -23 l283 0 0
-1585 0 -1585 -1495 0 -1495 0 0 749 0 750 -26 20 c-35 28 -69 26 -99 -4 l-25
-24 0 -768 c0 -726 1 -770 18 -803 39 -73 5 -70 787 -71 l700 -1 -365 -64
c-364 -63 -965 -167 -1198 -206 -67 -12 -124 -19 -126 -17 -5 5 -606 3514
-609 3553 l-2 29 365 63 c201 34 380 64 398 67 l32 6 0 -744 0 -744 23 -25
c32 -36 74 -39 107 -6 20 20 20 33 20 1028 0 555 3 1012 7 1015 8 9 1471 9
1931 0z m900 -430 l57 -52 -225 2 -225 2 -3 214 -2 214 171 -164 c94 -90 196
-187 227 -216z"/>
<path d="M2395 4000 c-49 -19 -65 -85 -29 -120 18 -18 62 -19 1122 -22 l1104
-3 24 28 c13 15 24 34 24 42 0 30 -24 65 -53 75 -36 12 -2161 13 -2192 0z"/>
<path d="M2369 3452 c-33 -27 -30 -78 5 -109 l27 -23 1101 2 1100 3 19 24 c25
30 24 62 -2 95 l-20 26 -1104 0 c-1057 0 -1104 -1 -1126 -18z"/>
<path d="M2382 2933 c-7 -3 -19 -18 -28 -35 -13 -25 -13 -35 -3 -59 6 -17 20
-34 30 -39 11 -6 431 -10 1114 -10 l1096 0 24 25 c32 31 32 69 0 100 l-24 25
-1098 -1 c-604 0 -1104 -3 -1111 -6z"/>
<path d="M2374 2387 c-35 -31 -38 -82 -5 -109 22 -17 69 -18 1126 -18 l1104 0
20 26 c34 43 26 86 -20 109 -24 13 -180 15 -1113 15 l-1085 0 -27 -23z"/>
<path d="M2365 1850 c-25 -28 -23 -76 4 -103 l22 -22 1087 -3 c763 -2 1095 1
1113 9 25 10 49 46 49 73 0 7 -9 25 -21 40 l-20 26 -1108 0 c-1098 0 -1108 0
-1126 -20z"/>
</g>
</svg>
