<?xml version="1.0" standalone="no"?>
<!DOCTYPE svg PUBLIC "-//W3C//DTD SVG 20010904//EN"
 "http://www.w3.org/TR/2001/REC-SVG-20010904/DTD/svg10.dtd">
<svg version="1.0" xmlns="http://www.w3.org/2000/svg"
 width="512.000000pt" height="512.000000pt" viewBox="0 0 512.000000 512.000000"
 preserveAspectRatio="xMidYMid meet">

<g transform="translate(0.000000,512.000000) scale(0.100000,-0.100000)"
fill="#000000" stroke="none">
<path d="M2190 5030 l-1825 -5 -58 -30 c-74 -37 -148 -117 -179 -193 -22 -55
-23 -69 -26 -394 l-3 -338 2211 0 2211 0 -3 343 -3 342 -31 65 c-73 151 -203
224 -392 218 -42 -2 -898 -5 -1902 -8z m828 -96 c26 -18 29 -60 5 -86 -15 -17
-43 -18 -469 -18 -249 0 -460 3 -469 6 -37 15 -38 82 -1 106 6 4 214 8 461 8
392 0 453 -2 473 -16z m-2339 -232 c98 -46 128 -189 59 -283 -56 -76 -187 -93
-263 -35 -79 60 -98 185 -41 260 62 82 150 103 245 58z m1033 -10 c48 -30 81
-93 81 -156 0 -109 -79 -186 -189 -186 -103 0 -184 81 -184 185 0 150 162 237
292 157z m-553 17 c81 -28 63 -195 -28 -255 -82 -54 -188 -38 -211 31 -46 139
98 273 239 224z m2987 -101 c28 -31 34 -46 34 -80 0 -54 -27 -100 -73 -121
-32 -15 -103 -17 -751 -17 -778 0 -760 -1 -804 55 -27 34 -29 104 -6 144 38
64 -6 61 817 58 l749 -2 34 -37z"/>
<path d="M1332 3292 c-62 -22 -124 -78 -151 -137 -11 -22 -23 -75 -26 -117
l-7 -78 31 6 c29 6 31 5 31 -22 l1 -29 13 31 c10 22 24 33 53 42 21 6 50 23
63 37 13 14 27 25 32 25 4 0 26 -13 49 -29 40 -30 113 -51 173 -51 24 0 36 -6
44 -22 l11 -23 0 23 c1 13 7 22 16 22 21 0 20 101 0 161 -46 134 -200 208
-333 161z"/>
<path d="M1304 2875 c-4 -9 -2 -21 4 -27 16 -16 47 -5 47 17 0 26 -42 34 -51
10z"/>
<path d="M1494 2875 c-4 -9 -2 -21 4 -27 16 -16 47 -5 47 17 0 26 -42 34 -51
10z"/>
<path d="M1268 2564 c-8 -8 7 -69 24 -93 46 -65 140 -90 213 -56 42 21 82 76
87 120 3 27 0 30 -29 33 -28 3 -33 0 -33 -17 0 -11 -13 -35 -29 -53 -24 -27
-36 -33 -71 -33 -35 0 -47 6 -71 33 -16 18 -29 41 -29 52 0 15 -7 20 -28 20
-16 0 -31 -2 -34 -6z"/>
<path d="M1780 2458 c11 -24 20 -58 20 -76 0 -30 2 -31 20 -20 27 17 25 37
-11 91 -39 59 -54 61 -29 5z"/>
</g>
</svg>
